<?xml version="1.0" encoding="utf-8"?>
<svg width="509" height="135" viewBox="0 0 509 135" fill="none" xmlns="http://www.w3.org/2000/svg">
    <path
        d="M21.12 99.936L5.76 99.936L5.76 39.168L21.12 39.168L21.12 99.936ZM84.096 84.384Q84.096 92.064 79.344 96Q74.592 99.936 62.592 99.936L32.64 99.936L32.64 39.168L36.384 39.168L61.632 39.168Q69.6 39.168 74.064 40.848Q78.528 42.528 80.352 45.792Q82.176 49.056 82.176 53.952Q82.176 60.672 78.96 64.368Q75.744 68.064 66.912 68.832L66.912 69.12Q73.44 69.6 77.184 71.28Q80.928 72.96 82.512 76.128Q84.096 79.296 84.096 84.384ZM57.408 51.264L48 51.264L48 63.168L57.408 63.168Q62.112 63.168 64.224 61.968Q66.336 60.768 66.336 57.216Q66.336 53.76 64.224 52.512Q62.112 51.264 57.408 51.264ZM59.328 75.744L48 75.744L48 87.936L59.328 87.936Q64.032 87.936 66.144 86.64Q68.256 85.344 68.256 81.792Q68.256 78.144 66.144 76.944Q64.032 75.744 59.328 75.744ZM90.816 69.504Q90.816 57.888 93.456 51.072Q96.096 44.256 102.576 41.28Q109.056 38.304 120.672 38.304Q129.408 38.304 135.168 39.936Q140.928 41.568 144.288 45.216Q147.648 48.864 149.04 54.864Q150.432 60.864 150.432 69.504Q150.432 78.24 149.04 84.24Q147.648 90.24 144.288 93.888Q140.928 97.536 135.168 99.168Q129.408 100.8 120.672 100.8Q111.936 100.8 106.176 99.168Q100.416 97.536 97.056 93.888Q93.696 90.24 92.256 84.24Q90.816 78.24 90.816 69.504ZM120.672 87.36Q126.816 87.36 129.888 85.824Q132.96 84.288 134.016 80.4Q135.072 76.512 135.072 69.504Q135.072 62.592 134.016 58.752Q132.96 54.912 129.888 53.328Q126.816 51.744 120.672 51.744Q114.624 51.744 111.504 53.328Q108.384 54.912 107.28 58.752Q106.176 62.592 106.176 69.504Q106.176 76.512 107.28 80.4Q108.384 84.288 111.504 85.824Q114.624 87.36 120.672 87.36ZM241.44 39.168L241.44 74.976Q241.44 84.384 239.184 90.048Q236.928 95.712 231.36 98.256Q225.792 100.8 215.616 100.8Q205.056 100.8 199.248 98.256Q193.44 95.712 191.136 90.048Q188.832 84.384 188.832 74.976L188.832 39.168L204.192 39.168L204.192 74.688Q204.192 79.584 205.152 82.368Q206.112 85.152 208.608 86.256Q211.104 87.36 215.616 87.36Q219.84 87.36 222.096 86.256Q224.352 85.152 225.216 82.368Q226.08 79.584 226.08 74.688L226.08 39.168L241.44 39.168ZM311.04 52.704Q318.144 52.704 322.32 57.408Q326.496 62.112 326.496 73.728L326.496 99.936L311.136 99.936L311.04 75.648Q311.04 70.944 309.648 68.832Q308.256 66.72 304.224 66.72Q300.192 66.72 298.8 68.832Q297.408 70.944 297.408 75.648L297.408 99.936L282.048 99.936L281.952 75.648Q281.952 70.944 280.56 68.832Q279.168 66.72 275.136 66.72Q271.104 66.72 269.712 68.832Q268.32 70.944 268.32 75.648L268.32 99.936L252.96 99.936L252.96 53.184L267.552 53.184L268.32 61.728L268.608 61.728Q269.856 57.504 272.976 55.104Q276.096 52.704 281.856 52.704Q287.616 52.704 290.928 55.104Q294.24 57.504 295.2 61.728L295.488 61.728Q296.736 57.408 300.336 55.056Q303.936 52.704 311.04 52.704ZM384.48 74.496Q384.48 87.456 379.2 94.128C375.68 98.576 369.696 100.8 361.248 100.8C356.512 100.8 352.112 100.624 348.048 100.272Q341.952 99.744 337.344 98.976L337.056 98.784L337.056 35.328L352.416 35.328L352.416 60.384L352.8 60.384Q354.144 56.928 357.264 54.816Q360.384 52.704 366.144 52.704Q384.48 52.704 384.48 74.496ZM352.416 76.128L352.416 87.36Q354.72 87.744 357.792 87.744Q362.304 87.744 364.848 86.928Q367.392 86.112 368.448 83.712Q369.504 81.312 369.504 76.8Q369.504 71.136 367.872 68.448Q366.24 65.76 361.152 65.76Q357.312 65.76 354.864 68.112Q352.416 70.464 352.416 76.128ZM408 99.936L392.64 99.936L392.64 53.184L405.12 53.184L406.368 62.784L406.656 62.784Q407.52 57.408 410.784 55.056Q414.048 52.704 420.48 52.704Q423.072 52.704 425.184 52.944Q427.296 53.184 428.736 53.376L428.736 68.352L428.544 68.544Q427.008 68.16 425.04 67.872Q423.072 67.584 420.576 67.584Q417.024 67.584 414.192 68.736Q411.36 69.888 409.776 73.2Q408.192 76.512 408.192 83.04L408 99.936ZM476.64 98.4Q473.952 99.36 469.2 100.08C466.032 100.56 462.272 100.8 457.92 100.8Q449.664 100.8 443.856 98.64Q438.048 96.48 435.072 91.248Q432.096 86.016 432.096 76.704Q432.096 64.032 437.904 58.368Q443.712 52.704 455.904 52.704Q464.64 52.704 469.68 55.2Q474.72 57.696 476.88 62.256Q479.04 66.816 479.04 73.056Q479.04 74.88 478.896 76.992Q478.752 79.104 478.368 81.12L477.984 81.504L446.4 81.504Q447.072 85.728 450.384 87.072Q453.696 88.416 461.184 88.416Q466.176 88.416 469.488 88.176Q472.8 87.936 476.256 87.456L476.64 87.744L476.64 98.4ZM465.696 71.424Q465.696 69.12 464.976 67.44Q464.256 65.76 462.144 64.848Q460.032 63.936 455.904 63.936Q449.856 63.936 447.984 66Q446.112 68.064 446.112 71.424L465.696 71.424ZM502.56 99.936L487.2 99.936L487.2 35.328L502.56 35.328L502.56 99.936Z"
        fill="#FFFFFF" />
</svg>